<?xml version="1.0" standalone="no"?>
<!DOCTYPE svg PUBLIC "-//W3C//DTD SVG 20010904//EN"
 "http://www.w3.org/TR/2001/REC-SVG-20010904/DTD/svg10.dtd">
<svg version="1.0" xmlns="http://www.w3.org/2000/svg"
 width="1024.000000pt" height="1024.000000pt" viewBox="0 0 1024.000000 1024.000000"
 preserveAspectRatio="xMidYMid meet">

<g transform="translate(0.000000,1024.000000) scale(0.100000,-0.100000)"
fill="#000000" stroke="none">
<path d="M1999 5863 l-24 -28 26 23 c24 21 32 22 220 22 190 0 196 -1 216 -22
12 -13 23 -36 26 -53 l4 -30 2 31 c1 22 -7 39 -25 58 l-27 26 -197 0 -197 0
-24 -27z"/>
<path d="M2461 5694 c0 -11 3 -14 6 -6 3 7 2 16 -1 19 -3 4 -6 -2 -5 -13z"/>
<path d="M2461 5654 c0 -11 3 -14 6 -6 3 7 2 16 -1 19 -3 4 -6 -2 -5 -13z"/>
<path d="M2463 5570 c0 -30 2 -43 4 -27 2 15 2 39 0 55 -2 15 -4 2 -4 -28z"/>
<path d="M3520 5613 c-55 -7 -72 -15 -110 -49 -44 -40 -70 -107 -70 -181 l0
-43 -45 0 -45 0 0 -55 0 -55 45 0 45 0 2 -232 3 -233 63 -3 62 -3 0 236 0 235
59 0 58 0 7 46 c3 25 3 50 0 55 -3 5 -32 9 -65 9 -58 0 -59 0 -59 29 0 69 42
121 100 121 16 0 20 7 22 40 1 22 2 48 2 57 1 18 -34 31 -74 26z"/>
<path d="M6290 5175 l0 -415 65 0 65 0 2 293 3 292 194 -292 194 -293 68 0 69
0 0 415 0 416 -67 -3 -68 -3 0 -297 c0 -163 -4 -293 -8 -289 -5 5 -93 139
-196 297 l-187 289 -67 3 -67 3 0 -416z"/>
<path d="M1530 5413 c-37 -13 -40 -32 -40 -258 0 -203 2 -223 19 -239 16 -14
44 -16 242 -13 l224 2 -225 3 c-160 1 -230 6 -238 14 -15 15 -17 445 -2 468 8
12 48 16 217 21 l208 5 -195 1 c-107 1 -202 -1 -210 -4z"/>
<path d="M2686 5411 c157 -5 215 -9 227 -20 15 -12 17 -41 17 -230 0 -158 -3
-222 -12 -234 -11 -15 -41 -17 -238 -20 l-225 -2 227 -3 c224 -2 227 -2 242
20 22 32 24 444 2 474 -13 18 -29 19 -233 20 l-218 0 211 -5z"/>
<path d="M3797 5335 c-65 -23 -106 -71 -122 -142 l-7 -33 61 0 c55 0 62 3 70
23 17 44 49 62 111 62 74 0 110 -28 110 -86 0 -37 0 -38 -47 -44 -210 -30
-278 -54 -313 -109 -47 -76 -13 -189 69 -233 79 -41 224 -25 270 30 19 24 29
21 33 -10 3 -27 6 -28 61 -31 l57 -3 0 216 c0 234 -5 263 -58 318 -50 52 -206
74 -295 42z m226 -342 c-16 -108 -117 -172 -206 -132 -54 24 -54 91 -1 125 27
18 125 41 181 43 31 1 32 0 26 -36z"/>
<path d="M4885 5331 c-22 -10 -49 -28 -60 -41 l-20 -22 -5 33 c-5 34 -6 34
-62 37 l-58 3 0 -291 0 -291 63 3 62 3 5 190 c5 179 6 192 28 223 30 41 51 52
101 52 50 0 96 -37 111 -88 5 -20 10 -115 10 -209 l0 -173 59 0 59 0 4 188 c2
156 6 192 21 219 37 68 133 85 185 34 38 -39 42 -62 42 -267 l0 -174 66 0 66
0 -4 213 c-4 230 -11 262 -66 321 -78 83 -233 73 -310 -20 l-29 -35 -27 36
c-55 71 -156 95 -241 56z"/>
<path d="M5828 5340 c-74 -22 -138 -95 -138 -158 0 -20 5 -22 59 -22 56 0 60
1 69 29 31 89 201 77 218 -14 4 -21 2 -41 -4 -47 -5 -5 -56 -16 -113 -24 -139
-20 -176 -32 -220 -74 -68 -65 -66 -158 7 -227 49 -48 83 -57 179 -51 52 3 72
10 108 36 l45 32 6 -31 c6 -30 6 -30 62 -27 l56 3 -1 225 c-2 195 -4 230 -20
260 -20 40 -67 75 -120 90 -42 12 -154 12 -193 0z m212 -338 c0 -46 -41 -115
-80 -134 -103 -52 -212 18 -155 100 20 28 113 55 208 61 23 1 27 -3 27 -27z"/>
<path d="M7240 5335 c-63 -20 -124 -75 -157 -143 -24 -49 -28 -69 -28 -142 0
-73 4 -93 28 -142 52 -105 141 -158 266 -158 158 0 268 113 279 285 7 121 -54
237 -152 287 -53 27 -172 34 -236 13z m189 -122 c47 -36 66 -81 66 -158 0
-111 -52 -183 -139 -192 -58 -6 -123 29 -150 82 -25 48 -27 155 -3 200 18 37
54 70 87 84 36 15 108 7 139 -16z"/>
<path d="M8417 5335 c-50 -17 -85 -50 -108 -100 -31 -68 -28 -75 40 -75 56 0
59 1 72 31 32 79 195 75 215 -5 15 -60 8 -64 -159 -90 -106 -17 -164 -41 -196
-82 -60 -76 -25 -196 71 -245 34 -17 55 -20 119 -17 68 3 83 7 123 36 l47 32
6 -30 c5 -29 7 -30 63 -30 l57 0 -4 228 c-4 189 -8 233 -22 262 -20 40 -67 75
-120 90 -51 14 -159 12 -204 -5z m219 -352 c-3 -27 -14 -59 -24 -73 -44 -61
-153 -80 -197 -35 -72 71 24 145 199 154 29 1 29 1 22 -46z"/>
<path d="M4277 5333 c-2 -5 -2 -135 1 -291 l5 -283 61 3 61 3 5 182 c5 174 6
183 29 207 32 34 81 56 125 56 l36 0 0 65 c0 65 0 65 -29 65 -42 0 -91 -19
-132 -51 l-37 -28 -6 39 -6 40 -55 0 c-29 0 -56 -3 -58 -7z"/>
<path d="M7657 5332 c-3 -4 43 -133 101 -287 l107 -280 76 -3 76 -3 106 283
c59 155 103 286 98 291 -4 4 -35 7 -67 5 l-59 -3 -76 -218 -76 -218 -78 220
-78 221 -63 0 c-34 0 -65 -3 -67 -8z"/>
<path d="M2464 4775 c0 -60 1 -84 3 -52 2 32 2 81 0 110 -2 29 -3 3 -3 -58z"/>
<path d="M2462 4558 c-2 -83 -3 -87 -33 -112 -30 -26 -31 -26 -214 -26 -182 0
-183 0 -206 25 -13 13 -28 25 -33 25 -6 0 3 -13 19 -30 l29 -30 191 0 191 0
32 33 c33 33 33 35 29 118 l-3 84 -2 -87z"/>
</g>
</svg>
